<svg id="svg" version="1.1" xmlns="http://www.w3.org/2000/svg" xmlns:xlink="http://www.w3.org/1999/xlink" width="40" height="40" viewBox="0, 0, 400,400"><g id="svgg"><path id="path0" d="M12.098 117.496 L 12.200 160.200 29.182 160.304 C 43.989 160.395,46.207 160.331,46.502 159.804 C 46.801 159.269,54.761 159.200,116.420 159.200 L 186.000 159.200 186.000 117.406 L 186.000 75.612 133.700 75.404 C 104.935 75.290,65.784 75.106,46.698 74.994 L 11.996 74.791 12.098 117.496 M281.600 117.357 L 281.600 159.113 288.900 159.383 C 292.915 159.531,300.430 159.596,305.600 159.526 L 315.000 159.400 315.102 117.825 C 315.183 84.829,315.100 76.184,314.702 75.931 C 314.426 75.756,306.865 75.609,297.900 75.606 L 281.600 75.600 281.600 117.357 M28.899 230.413 C 28.403 230.612,27.380 230.817,26.625 230.868 C 25.870 230.918,25.319 231.068,25.400 231.200 C 25.516 231.387,22.599 232.464,21.600 232.603 C 20.928 232.696,18.400 234.152,18.400 234.446 C 18.400 234.641,18.040 234.800,17.600 234.800 C 17.160 234.800,16.800 234.980,16.800 235.200 C 16.800 235.420,16.530 235.600,16.200 235.600 C 15.870 235.600,15.600 235.780,15.600 236.000 C 15.600 236.220,15.414 236.400,15.186 236.400 C 14.958 236.400,14.322 236.805,13.772 237.300 C 11.781 239.093,8.400 242.585,8.400 242.847 C 8.400 242.995,7.860 243.693,7.200 244.400 C 6.540 245.107,6.000 245.936,6.000 246.242 C 6.000 246.549,5.820 246.800,5.600 246.800 C 5.380 246.800,5.200 247.070,5.200 247.400 C 5.200 247.730,5.020 248.000,4.800 248.000 C 4.580 248.000,4.400 248.234,4.400 248.520 C 4.400 249.256,3.459 251.193,3.100 251.197 C 2.935 251.199,2.800 251.729,2.800 252.376 C 2.800 253.023,2.620 253.664,2.400 253.800 C 2.180 253.936,2.000 254.487,2.000 255.024 C 2.000 255.561,1.854 256.000,1.675 256.000 C 1.496 256.000,1.305 256.851,1.252 257.891 C 1.198 258.931,0.973 259.893,0.752 260.029 C 0.019 260.483,0.823 273.322,1.639 274.180 C 1.837 274.389,2.000 275.064,2.000 275.680 C 2.000 276.296,2.180 276.800,2.400 276.800 C 2.620 276.800,2.800 277.142,2.800 277.559 C 2.800 278.291,4.970 282.771,5.529 283.194 C 5.679 283.307,6.056 283.895,6.368 284.500 C 6.680 285.105,7.085 285.600,7.268 285.600 C 7.450 285.600,7.600 285.887,7.600 286.238 C 7.600 287.016,13.853 293.200,14.639 293.200 C 14.948 293.200,15.200 293.358,15.200 293.551 C 15.200 293.745,15.740 294.127,16.400 294.400 C 17.060 294.673,17.600 295.027,17.600 295.186 C 17.600 295.344,18.455 295.882,19.500 296.381 C 20.545 296.880,21.713 297.448,22.095 297.644 C 22.477 297.840,23.062 298.000,23.395 298.000 C 23.728 298.000,24.000 298.160,24.000 298.356 C 24.000 298.714,25.457 299.048,28.800 299.457 C 29.790 299.578,30.771 299.840,30.980 300.039 C 31.485 300.519,66.522 300.514,67.020 300.034 C 67.894 299.191,78.732 299.110,211.274 298.955 C 349.297 298.793,349.950 298.788,350.201 297.996 C 350.340 297.558,350.622 297.200,350.827 297.200 C 351.032 297.200,351.200 296.660,351.200 296.000 C 351.200 295.340,351.380 294.800,351.600 294.800 C 351.820 294.800,352.000 294.260,352.000 293.600 C 352.000 292.940,351.820 292.400,351.600 292.400 C 351.380 292.400,351.200 292.022,351.200 291.560 C 351.200 290.702,349.292 288.599,347.697 287.700 C 346.338 286.933,327.600 286.986,327.600 287.757 C 327.600 288.064,327.314 288.424,326.964 288.558 C 325.520 289.112,35.532 288.767,32.400 288.207 C 23.351 286.591,16.582 281.056,13.556 272.800 C 12.408 269.667,12.177 261.419,13.159 258.600 C 15.162 252.847,19.549 246.947,22.835 245.585 C 23.476 245.320,24.000 244.945,24.000 244.751 C 24.000 244.558,24.360 244.400,24.800 244.400 C 25.240 244.400,25.600 244.220,25.600 244.000 C 25.600 243.780,25.949 243.600,26.376 243.600 C 26.803 243.600,27.264 243.420,27.400 243.200 C 27.536 242.980,28.141 242.800,28.744 242.800 C 29.347 242.800,30.031 242.609,30.264 242.376 C 30.561 242.079,78.049 241.989,189.544 242.076 C 276.915 242.144,348.400 242.065,348.400 241.900 C 348.400 241.735,348.604 241.600,348.853 241.600 C 349.582 241.600,351.199 239.480,351.200 238.524 C 351.200 238.042,351.380 237.536,351.600 237.400 C 352.087 237.099,352.120 235.838,351.665 234.895 C 351.481 234.513,351.069 233.660,350.750 233.000 C 350.432 232.340,349.637 231.530,348.985 231.200 C 347.936 230.669,330.466 230.618,197.100 230.753 C 84.997 230.867,46.400 230.790,46.400 230.453 C 46.400 229.895,30.281 229.857,28.899 230.413 " stroke="none" fill="#d0da3f" fill-rule="evenodd"></path><path id="path1" d="M46.598 160.500 C 46.478 160.995,46.429 176.880,46.490 195.800 L 46.600 230.200 167.900 230.301 L 289.200 230.401 289.200 195.001 L 289.200 159.600 168.008 159.600 L 46.815 159.600 46.598 160.500 M168.880 183.250 C 179.117 185.422,182.496 196.566,175.089 203.727 C 173.363 205.395,172.512 205.815,169.200 206.630 C 166.346 207.332,88.928 207.462,85.520 206.770 C 72.407 204.108,71.981 186.513,84.953 183.365 C 87.754 182.685,165.716 182.578,168.880 183.250 M348.000 299.325 C 347.237 299.688,313.472 299.847,205.433 300.000 C 92.678 300.159,63.833 300.302,63.700 300.700 C 63.608 300.975,63.096 301.200,62.561 301.200 C 62.027 301.200,61.232 301.380,60.795 301.600 C 60.358 301.820,59.642 302.180,59.205 302.400 C 58.768 302.620,58.048 302.800,57.605 302.800 C 57.162 302.800,56.800 302.980,56.800 303.200 C 56.800 303.420,56.440 303.600,56.000 303.600 C 55.560 303.600,55.200 303.780,55.200 304.000 C 55.200 304.220,54.840 304.400,54.400 304.400 C 53.960 304.400,53.600 304.580,53.600 304.800 C 53.600 305.020,53.280 305.200,52.888 305.200 C 52.497 305.200,51.917 305.560,51.600 306.000 C 51.283 306.440,50.743 306.800,50.400 306.800 C 50.057 306.800,49.517 307.160,49.200 307.600 C 48.883 308.040,48.348 308.404,48.012 308.409 C 47.026 308.423,39.600 315.102,39.600 315.974 C 39.600 316.208,39.420 316.400,39.200 316.400 C 38.980 316.400,38.800 316.598,38.800 316.840 C 38.800 317.081,38.260 317.783,37.600 318.400 C 36.940 319.017,36.400 319.769,36.400 320.072 C 36.400 320.375,36.040 320.883,35.600 321.200 C 35.160 321.517,34.800 322.057,34.800 322.400 C 34.800 322.743,34.440 323.283,34.000 323.600 C 33.560 323.917,33.200 324.497,33.200 324.888 C 33.200 325.280,33.020 325.600,32.800 325.600 C 32.580 325.600,32.400 325.960,32.400 326.400 C 32.400 326.840,32.265 327.201,32.100 327.203 C 31.694 327.207,30.800 329.186,30.800 330.080 C 30.800 330.476,30.620 330.800,30.400 330.800 C 30.180 330.800,30.000 331.072,30.000 331.405 C 30.000 331.738,29.842 332.323,29.649 332.705 C 29.065 333.861,28.400 336.204,28.400 337.105 C 28.400 337.571,28.220 338.064,28.000 338.200 C 27.780 338.336,27.600 339.427,27.600 340.624 C 27.600 341.821,27.428 342.800,27.218 342.800 C 26.986 342.800,26.886 345.425,26.964 349.500 C 27.103 356.863,27.505 361.200,28.048 361.200 C 28.242 361.200,28.400 361.920,28.400 362.800 C 28.400 363.680,28.580 364.400,28.800 364.400 C 29.020 364.400,29.200 364.940,29.200 365.600 C 29.200 366.260,29.380 366.800,29.600 366.800 C 29.820 366.800,30.000 367.340,30.000 368.000 C 30.000 368.660,30.180 369.200,30.400 369.200 C 30.620 369.200,30.800 369.560,30.800 370.000 C 30.800 370.440,30.980 370.800,31.200 370.800 C 31.420 370.800,31.600 371.160,31.600 371.600 C 31.600 372.040,31.780 372.400,32.000 372.400 C 32.220 372.400,32.400 372.760,32.400 373.200 C 32.400 373.640,32.580 374.000,32.800 374.000 C 33.020 374.000,33.200 374.270,33.200 374.600 C 33.200 374.930,33.380 375.200,33.600 375.200 C 33.820 375.200,34.000 375.520,34.000 375.912 C 34.000 376.303,34.360 376.883,34.800 377.200 C 35.240 377.517,35.600 378.057,35.600 378.400 C 35.600 378.743,35.960 379.283,36.400 379.600 C 36.840 379.917,37.200 380.382,37.200 380.633 C 37.200 381.284,45.508 389.676,47.297 390.832 C 48.121 391.365,48.796 391.935,48.797 392.100 C 48.799 392.265,49.160 392.400,49.600 392.400 C 50.040 392.400,50.400 392.580,50.400 392.800 C 50.400 393.020,50.720 393.200,51.112 393.200 C 51.503 393.200,52.083 393.560,52.400 394.000 C 52.717 394.440,53.297 394.800,53.688 394.800 C 54.080 394.800,54.400 394.980,54.400 395.200 C 54.400 395.420,54.760 395.600,55.200 395.600 C 55.640 395.600,56.000 395.780,56.000 396.000 C 56.000 396.220,56.272 396.400,56.605 396.400 C 56.938 396.400,57.568 396.580,58.005 396.800 C 58.442 397.020,59.158 397.380,59.595 397.600 C 60.032 397.820,60.752 398.000,61.195 398.000 C 61.638 398.000,62.000 398.180,62.000 398.400 C 62.000 398.620,62.594 398.800,63.320 398.800 C 64.046 398.800,64.865 399.025,65.140 399.300 C 65.538 399.698,99.351 399.821,230.974 399.904 L 396.307 400.008 397.554 398.843 C 398.239 398.203,398.800 397.391,398.800 397.040 C 398.800 396.688,398.980 396.400,399.200 396.400 C 400.686 396.400,399.405 391.427,397.400 389.408 L 396.200 388.200 235.200 388.330 C 114.940 388.428,73.643 388.344,72.000 388.000 C 67.173 386.991,63.844 385.938,61.088 384.549 C 30.471 369.118,32.590 326.300,64.600 313.571 C 65.040 313.396,66.120 313.046,67.000 312.793 C 67.880 312.540,69.140 312.123,69.800 311.866 C 71.395 311.247,377.600 310.977,377.600 311.595 C 377.600 311.856,380.792 312.000,386.600 312.000 C 392.333 312.000,395.600 311.855,395.600 311.600 C 395.600 311.380,395.878 311.200,396.218 311.200 C 397.018 311.200,398.800 309.418,398.800 308.618 C 398.800 308.278,398.980 308.000,399.200 308.000 C 399.426 308.000,399.600 306.867,399.600 305.400 C 399.600 303.933,399.426 302.800,399.200 302.800 C 398.980 302.800,398.800 302.522,398.800 302.182 C 398.800 301.382,397.018 299.600,396.218 299.600 C 395.878 299.600,395.600 299.420,395.600 299.200 C 395.600 298.586,349.300 298.708,348.000 299.325 " stroke="none" fill="#6c9cfa" fill-rule="evenodd"></path><path id="path2" d="M80.000 0.511 C 79.450 0.788,78.822 1.416,78.605 1.907 C 78.388 2.398,78.073 2.800,77.905 2.800 C 77.737 2.800,77.600 4.150,77.600 5.800 C 77.600 7.450,77.736 8.800,77.902 8.800 C 78.069 8.800,78.444 9.340,78.736 10.000 C 79.059 10.731,79.567 11.200,80.034 11.200 C 80.455 11.200,80.800 11.335,80.800 11.500 C 80.800 11.665,139.255 11.739,210.700 11.664 C 341.882 11.526,342.405 11.531,346.200 12.871 C 370.288 21.375,369.982 54.657,345.740 62.872 L 343.000 63.800 223.489 63.904 C 117.218 63.996,103.952 63.941,103.746 63.404 C 103.466 62.675,82.247 62.477,81.800 63.200 C 81.664 63.420,81.285 63.600,80.958 63.600 C 80.631 63.600,79.967 64.015,79.482 64.522 C 75.847 68.323,77.105 74.236,81.751 75.183 C 83.962 75.634,344.000 76.007,344.000 75.559 C 344.000 75.426,345.349 75.203,346.997 75.064 C 348.645 74.925,350.355 74.628,350.797 74.405 C 351.239 74.182,351.958 73.820,352.395 73.600 C 352.832 73.380,353.462 73.200,353.795 73.200 C 354.128 73.200,354.400 73.020,354.400 72.800 C 354.400 72.580,354.715 72.396,355.100 72.391 C 355.485 72.386,356.250 72.030,356.800 71.600 C 357.350 71.170,358.025 70.814,358.300 70.809 C 358.575 70.804,358.800 70.650,358.800 70.468 C 358.800 70.285,359.289 69.880,359.886 69.568 C 362.316 68.297,370.000 60.513,370.000 59.322 C 370.000 59.035,370.180 58.800,370.400 58.800 C 370.620 58.800,370.800 58.564,370.800 58.275 C 370.800 57.987,371.115 57.402,371.500 56.975 C 371.885 56.549,372.626 55.210,373.146 54.000 C 373.666 52.790,374.254 51.483,374.452 51.095 C 374.651 50.707,374.926 49.312,375.064 47.995 C 375.201 46.678,375.468 45.600,375.657 45.600 C 375.846 45.600,376.000 42.090,376.000 37.800 C 376.000 33.510,375.846 30.000,375.657 30.000 C 375.468 30.000,375.201 28.922,375.064 27.605 C 374.926 26.288,374.630 24.848,374.407 24.405 C 374.183 23.962,373.820 23.242,373.600 22.805 C 373.380 22.368,373.200 21.738,373.200 21.405 C 373.200 21.072,373.020 20.800,372.800 20.800 C 372.580 20.800,372.400 20.440,372.400 20.000 C 372.400 19.560,372.220 19.200,372.000 19.200 C 371.780 19.200,371.600 18.880,371.600 18.488 C 371.600 18.097,371.240 17.517,370.800 17.200 C 370.360 16.883,370.000 16.343,370.000 16.000 C 370.000 15.657,369.640 15.117,369.200 14.800 C 368.760 14.483,368.400 13.995,368.400 13.715 C 368.400 13.436,368.040 12.982,367.600 12.707 C 367.160 12.432,366.800 12.063,366.800 11.886 C 366.800 11.709,366.350 11.114,365.800 10.564 C 365.250 10.014,364.800 9.681,364.800 9.824 C 364.800 9.967,364.278 9.526,363.640 8.842 C 363.001 8.159,362.263 7.600,362.000 7.600 C 361.737 7.600,361.044 7.093,360.460 6.473 C 359.877 5.853,358.815 5.089,358.100 4.775 C 357.385 4.462,356.800 4.069,356.800 3.902 C 356.800 3.736,356.440 3.600,356.000 3.600 C 355.560 3.600,355.200 3.420,355.200 3.200 C 355.200 2.980,354.840 2.800,354.400 2.800 C 353.960 2.800,353.600 2.620,353.600 2.400 C 353.600 2.180,353.238 2.000,352.795 2.000 C 351.979 2.000,351.405 1.778,349.600 0.762 C 348.187 -0.032,81.573 -0.281,80.000 0.511 M314.966 159.194 C 314.729 159.431,309.637 159.630,302.186 159.694 L 289.800 159.800 289.800 195.000 L 289.800 230.200 342.200 230.509 C 372.633 230.689,394.875 230.972,395.257 231.186 C 396.398 231.824,396.400 231.762,396.400 194.933 L 396.400 158.800 355.880 158.800 C 329.805 158.800,315.220 158.940,314.966 159.194 M365.071 189.837 C 368.812 192.610,368.989 197.090,365.463 199.779 L 364.124 200.800 342.962 200.797 C 322.905 200.795,321.740 200.755,320.657 200.041 C 316.245 197.132,317.415 190.434,322.556 189.170 C 325.845 188.362,363.886 188.958,365.071 189.837 " stroke="none" fill="#d95547" fill-rule="evenodd"></path><path id="path3" d="M103.600 21.997 L 103.600 32.000 171.420 32.000 C 228.887 32.000,239.405 32.086,240.320 32.562 C 244.512 34.743,244.722 40.352,240.704 42.802 C 239.416 43.587,238.548 43.597,171.493 43.599 L 103.586 43.600 103.693 53.300 L 103.800 63.000 221.600 63.119 C 337.383 63.237,343.410 63.184,346.200 62.032 C 348.500 61.082,351.089 59.721,351.775 59.101 C 352.202 58.715,352.714 58.400,352.912 58.400 C 353.429 58.400,358.400 53.361,358.400 52.837 C 358.400 52.597,358.559 52.400,358.752 52.400 C 359.299 52.400,361.944 46.782,362.634 44.155 C 365.589 32.919,359.373 19.354,349.260 14.966 C 348.457 14.618,347.487 14.168,347.105 13.966 C 346.723 13.765,346.084 13.600,345.685 13.600 C 345.286 13.600,344.789 13.437,344.580 13.239 C 343.667 12.371,334.129 12.286,221.900 12.144 L 103.600 11.995 103.600 21.997 M186.800 117.600 L 186.800 159.200 233.800 159.200 L 280.800 159.200 280.800 117.600 L 280.800 76.000 233.800 76.000 L 186.800 76.000 186.800 117.600 M216.503 105.477 C 218.622 107.468,218.800 108.396,218.800 117.461 C 218.800 125.106,218.734 125.884,217.945 127.513 C 215.557 132.447,208.058 131.775,206.473 126.485 C 205.574 123.485,205.846 109.920,206.847 107.789 C 208.660 103.932,213.600 102.749,216.503 105.477 M236.673 104.662 C 239.708 106.102,240.000 107.221,240.000 117.412 C 240.000 124.651,239.881 126.669,239.400 127.599 C 236.610 132.996,228.549 131.533,227.794 125.494 C 227.113 120.041,227.731 108.160,228.770 106.733 C 230.706 104.074,233.752 103.276,236.673 104.662 M259.670 105.993 C 261.838 108.415,262.548 124.297,260.648 127.869 C 258.574 131.766,252.098 131.784,249.867 127.898 C 248.694 125.854,248.885 108.580,250.100 106.800 C 252.396 103.437,257.032 103.046,259.670 105.993 M83.800 184.129 C 73.431 188.218,73.317 202.403,83.626 205.733 C 86.785 206.753,167.615 206.753,170.774 205.733 C 180.269 202.666,181.130 189.383,172.132 184.787 L 170.200 183.800 127.600 183.728 C 95.598 183.673,84.701 183.773,83.800 184.129 M322.459 189.881 C 317.694 190.821,317.324 197.904,321.941 199.833 C 324.360 200.844,362.336 200.653,364.361 199.620 C 367.792 197.869,368.186 192.929,365.071 190.707 L 363.800 189.800 343.600 189.748 C 332.490 189.719,322.977 189.779,322.459 189.881 M33.400 242.800 C 32.960 242.989,31.936 243.156,31.124 243.172 C 30.312 243.187,29.536 243.380,29.400 243.600 C 29.264 243.820,28.814 244.000,28.401 244.000 C 26.029 244.000,19.691 248.892,17.093 252.729 C 12.943 258.856,12.512 268.504,16.072 275.556 C 18.548 280.459,23.444 284.501,29.166 286.364 L 31.732 287.200 179.666 287.200 L 327.600 287.200 327.599 279.700 L 327.599 272.200 285.299 272.048 C 250.729 271.924,242.805 271.797,241.932 271.354 C 238.078 269.399,238.120 263.119,242.000 261.177 C 243.302 260.526,246.351 260.467,285.499 260.338 L 327.599 260.200 327.599 251.300 L 327.600 242.400 180.900 242.428 C 100.057 242.444,33.841 242.611,33.400 242.800 M69.796 312.580 C 61.098 314.713,52.704 320.004,47.783 326.454 C 45.042 330.048,42.269 335.565,41.277 339.400 C 41.050 340.280,40.669 341.741,40.432 342.646 C 40.194 343.552,40.000 346.771,40.000 349.800 C 40.000 352.829,40.194 356.048,40.432 356.954 C 40.669 357.859,41.050 359.320,41.277 360.200 C 41.730 361.951,41.788 362.109,43.664 366.700 C 43.956 367.415,44.331 368.000,44.498 368.000 C 44.664 368.000,44.800 368.190,44.800 368.422 C 44.800 369.296,48.256 373.885,50.976 376.621 C 55.682 381.356,61.675 384.900,67.600 386.450 C 73.645 388.032,68.867 387.986,226.700 387.993 L 377.600 388.000 377.600 379.200 L 377.600 370.400 287.900 370.399 C 199.099 370.397,198.187 370.389,196.896 369.602 C 193.081 367.276,193.081 361.924,196.896 359.598 C 198.183 358.813,199.048 358.803,264.200 358.801 C 300.500 358.800,340.865 358.680,353.900 358.534 L 377.600 358.269 377.600 349.800 L 377.600 341.331 354.134 341.066 C 341.228 340.919,286.460 340.800,232.428 340.800 C 121.370 340.800,132.388 341.146,130.510 337.595 C 129.369 335.438,129.369 334.562,130.510 332.405 C 132.388 328.854,121.400 329.200,232.194 329.200 C 286.097 329.199,340.865 329.080,353.900 328.934 L 377.600 328.669 377.600 320.334 L 377.600 312.000 224.700 312.044 C 105.277 312.079,71.361 312.196,69.796 312.580 " stroke="none" fill="#f3f3f9" fill-rule="evenodd"></path><path id="path4" d="M208.673 106.154 C 206.916 107.910,206.800 108.636,206.800 117.842 C 206.800 128.073,207.825 130.400,212.333 130.400 C 217.324 130.400,218.000 128.852,218.000 117.416 L 218.000 108.000 216.400 106.400 C 214.139 104.139,210.794 104.033,208.673 106.154 M229.953 106.353 L 228.400 107.906 228.400 117.173 C 228.400 127.442,228.547 128.170,230.919 129.616 C 233.655 131.284,237.417 130.142,238.899 127.192 C 239.912 125.177,239.945 109.829,238.941 107.880 C 237.080 104.268,232.770 103.535,229.953 106.353 M251.433 106.194 C 249.614 108.013,249.516 108.701,249.670 118.622 C 249.812 127.760,249.858 127.954,252.237 129.514 C 253.969 130.649,256.307 130.664,258.192 129.552 C 260.680 128.084,260.800 127.517,260.800 117.220 L 260.800 108.000 259.200 106.400 C 256.919 104.119,253.596 104.031,251.433 106.194 M289.200 194.999 L 289.200 230.399 168.300 230.500 L 47.400 230.601 168.600 230.701 L 289.800 230.800 289.800 195.200 C 289.800 175.620,289.665 159.600,289.500 159.600 C 289.335 159.600,289.200 175.530,289.200 194.999 M27.800 230.400 C 27.508 230.873,27.899 230.873,29.000 230.400 C 29.771 230.069,29.769 230.055,28.924 230.028 C 28.442 230.013,27.936 230.180,27.800 230.400 M349.176 231.306 C 350.418 231.935,395.786 231.824,395.396 231.194 C 395.241 230.943,386.644 230.802,371.676 230.806 C 352.782 230.811,348.390 230.908,349.176 231.306 M10.486 239.854 C 9.983 240.374,9.730 240.800,9.924 240.800 C 10.348 240.800,11.797 239.255,11.564 239.051 C 11.474 238.972,10.989 239.333,10.486 239.854 M348.800 288.300 C 348.800 288.469,349.160 288.832,349.600 289.107 C 350.040 289.382,350.400 289.469,350.400 289.300 C 350.400 289.131,350.040 288.768,349.600 288.493 C 349.160 288.218,348.800 288.131,348.800 288.300 M208.600 299.600 L 71.000 299.802 208.400 299.861 C 283.970 299.894,346.250 299.776,346.800 299.600 C 347.509 299.373,347.567 299.297,347.000 299.339 C 346.560 299.372,284.280 299.489,208.600 299.600 " stroke="none" fill="#6e7d8c" fill-rule="evenodd"></path><path id="path5" d="M103.600 37.800 L 103.600 43.600 171.500 43.599 C 238.548 43.597,239.416 43.587,240.704 42.802 C 244.722 40.352,244.512 34.743,240.320 32.562 C 239.405 32.086,228.887 32.000,171.420 32.000 L 103.600 32.000 103.600 37.800 M210.514 104.260 C 207.133 104.991,206.000 108.276,206.000 117.341 C 206.000 128.072,207.293 130.802,212.372 130.799 C 217.791 130.795,218.800 128.700,218.800 117.461 C 218.800 105.886,216.911 102.877,210.514 104.260 M231.352 104.551 C 230.010 105.160,227.989 107.517,228.018 108.438 C 228.027 108.747,228.378 108.352,228.797 107.560 C 230.854 103.668,236.215 103.451,238.692 107.159 C 239.912 108.985,240.101 125.022,238.932 127.487 C 236.981 131.599,230.435 131.322,228.575 127.048 C 228.218 126.230,228.026 126.054,228.016 126.538 C 227.911 131.450,236.972 132.294,239.400 127.599 C 240.468 125.535,240.263 108.791,239.150 107.093 C 237.393 104.412,234.054 103.324,231.352 104.551 M253.400 104.287 C 252.318 104.550,250.000 106.330,250.000 106.899 C 250.000 107.151,250.585 106.800,251.300 106.120 C 254.129 103.427,258.536 104.143,260.419 107.600 C 261.056 108.770,261.461 120.434,261.011 124.639 C 260.244 131.798,251.629 132.795,249.661 125.952 C 249.361 124.910,249.264 124.811,249.236 125.520 C 249.085 129.376,254.879 132.303,258.314 130.105 C 261.270 128.214,261.400 127.671,261.400 117.207 L 261.400 108.137 260.323 106.725 C 258.619 104.491,256.145 103.620,253.400 104.287 M215.823 105.452 C 218.084 106.933,219.259 116.661,218.201 125.131 C 217.478 130.918,209.872 132.553,207.447 127.443 C 206.208 124.832,206.653 108.038,208.000 106.580 C 210.050 104.361,213.417 103.876,215.823 105.452 M249.467 107.867 C 249.320 108.013,249.218 108.688,249.241 109.367 L 249.282 110.600 249.610 109.203 C 249.953 107.747,249.917 107.416,249.467 107.867 M227.768 117.400 C 227.768 121.800,227.826 123.655,227.898 121.521 C 227.970 119.388,227.970 115.788,227.899 113.521 C 227.827 111.255,227.768 113.000,227.768 117.400 M209.931 159.500 C 223.203 159.558,244.803 159.558,257.931 159.500 C 271.059 159.441,260.200 159.394,233.800 159.394 C 207.400 159.394,196.659 159.441,209.931 159.500 M84.953 183.365 C 71.981 186.513,72.407 204.108,85.520 206.770 C 88.928 207.462,166.346 207.332,169.200 206.630 C 172.512 205.815,173.363 205.395,175.089 203.727 C 182.496 196.566,179.117 185.422,168.880 183.250 C 165.716 182.578,87.754 182.685,84.953 183.365 M172.132 184.787 C 181.130 189.383,180.269 202.666,170.774 205.733 C 167.615 206.753,86.785 206.753,83.626 205.733 C 74.662 202.838,73.243 189.787,81.400 185.267 C 84.368 183.622,83.452 183.653,127.600 183.728 L 170.200 183.800 172.132 184.787 M269.600 260.393 C 243.931 260.590,242.545 260.637,241.480 261.359 C 238.075 263.667,238.341 269.540,241.932 271.351 C 243.066 271.923,325.511 272.716,326.938 272.168 C 328.133 271.710,327.911 260.577,326.700 260.252 C 325.783 260.006,317.377 260.027,269.600 260.393 M13.342 265.000 C 13.341 266.980,13.408 267.840,13.492 266.912 C 13.576 265.984,13.577 264.364,13.495 263.312 C 13.412 262.260,13.343 263.020,13.342 265.000 M32.100 287.476 C 32.485 287.576,33.115 287.576,33.500 287.476 C 33.885 287.375,33.570 287.293,32.800 287.293 C 32.030 287.293,31.715 287.375,32.100 287.476 M303.273 287.499 C 307.604 287.564,314.804 287.564,319.273 287.500 C 323.743 287.435,320.200 287.382,311.400 287.382 C 302.600 287.382,298.943 287.435,303.273 287.499 M72.400 311.624 C 69.229 312.065,67.233 312.566,64.600 313.581 C 32.660 325.889,30.519 369.142,61.088 384.549 C 63.738 385.885,66.325 386.715,71.706 387.959 C 73.079 388.277,116.078 388.373,225.706 388.302 L 377.800 388.204 225.400 387.983 C 141.580 387.861,72.460 387.625,71.800 387.459 C 71.140 387.292,69.790 386.966,68.800 386.733 C 62.176 385.174,55.988 381.663,50.976 376.621 C 48.256 373.885,44.800 369.296,44.800 368.422 C 44.800 368.190,44.664 368.000,44.498 368.000 C 44.331 368.000,43.956 367.415,43.664 366.700 C 41.788 362.109,41.730 361.951,41.277 360.200 C 41.050 359.320,40.669 357.859,40.432 356.954 C 39.873 354.821,39.873 344.779,40.432 342.646 C 40.669 341.741,41.050 340.280,41.277 339.400 C 42.045 336.434,44.271 331.594,46.154 328.800 C 51.692 320.581,60.013 314.907,69.925 312.590 C 72.127 312.075,91.938 312.000,225.025 312.000 C 326.475 312.000,377.600 311.866,377.600 311.600 C 377.600 311.122,75.832 311.146,72.400 311.624 M239.800 329.198 C 137.478 329.392,133.359 329.428,132.320 330.133 C 129.732 331.889,129.073 335.406,130.807 338.212 C 132.497 340.946,121.554 340.714,255.900 340.864 L 377.600 341.000 377.600 334.900 L 377.600 328.800 361.900 328.898 C 353.265 328.952,298.320 329.087,239.800 329.198 M271.982 358.798 C 201.313 358.990,197.712 359.035,196.663 359.722 C 193.068 362.078,193.192 367.344,196.896 369.602 C 198.187 370.389,199.099 370.397,287.900 370.399 L 377.600 370.400 377.600 364.400 L 377.600 358.400 361.900 358.498 C 353.265 358.552,312.802 358.687,271.982 358.798 " stroke="none" fill="#c3d3e5" fill-rule="evenodd"></path><path id="path6" d="M211.700 104.676 C 212.085 104.776,212.715 104.776,213.100 104.676 C 213.485 104.575,213.170 104.493,212.400 104.493 C 211.630 104.493,211.315 104.575,211.700 104.676 M233.300 104.676 C 233.685 104.776,234.315 104.776,234.700 104.676 C 235.085 104.575,234.770 104.493,234.000 104.493 C 233.230 104.493,232.915 104.575,233.300 104.676 M254.500 104.676 C 254.885 104.776,255.515 104.776,255.900 104.676 C 256.285 104.575,255.970 104.493,255.200 104.493 C 254.430 104.493,254.115 104.575,254.500 104.676 M228.170 117.400 C 228.171 122.240,228.229 124.165,228.299 121.678 C 228.369 119.191,228.369 115.231,228.298 112.878 C 228.228 110.525,228.170 112.560,228.170 117.400 M218.168 117.400 C 218.168 121.800,218.226 123.655,218.298 121.521 C 218.370 119.388,218.370 115.788,218.299 113.521 C 218.227 111.255,218.168 113.000,218.168 117.400 M249.366 117.600 C 249.366 121.670,249.425 123.335,249.498 121.300 C 249.571 119.265,249.571 115.935,249.498 113.900 C 249.425 111.865,249.366 113.530,249.366 117.600 M260.966 117.600 C 260.966 121.670,261.025 123.335,261.098 121.300 C 261.171 119.265,261.171 115.935,261.098 113.900 C 261.025 111.865,260.966 113.530,260.966 117.600 M46.662 159.500 C 46.494 159.771,94.030 159.770,161.000 159.497 C 174.860 159.440,154.846 159.350,116.524 159.297 C 78.202 159.244,46.764 159.335,46.662 159.500 M283.300 159.494 C 284.345 159.576,286.055 159.576,287.100 159.494 C 288.145 159.412,287.290 159.344,285.200 159.344 C 283.110 159.344,282.255 159.412,283.300 159.494 M30.200 242.400 C 30.064 242.620,29.434 242.800,28.800 242.800 C 28.166 242.800,27.536 242.980,27.400 243.200 C 27.264 243.420,26.803 243.600,26.376 243.600 C 25.949 243.600,25.600 243.780,25.600 244.000 C 25.600 244.220,25.240 244.400,24.800 244.400 C 24.360 244.400,24.000 244.558,24.000 244.751 C 24.000 244.945,23.476 245.320,22.835 245.585 C 21.586 246.103,17.690 249.854,16.372 251.810 C 11.049 259.702,11.098 270.443,16.493 278.283 C 20.339 283.873,25.235 286.928,32.400 288.207 C 35.532 288.767,325.520 289.112,326.964 288.558 C 329.898 287.433,325.530 287.402,180.100 287.517 C 74.255 287.600,32.148 287.509,31.000 287.196 C 7.917 280.884,7.206 249.574,30.000 243.129 C 31.436 242.722,61.721 242.577,179.800 242.408 L 327.800 242.197 179.124 242.098 C 80.331 242.033,30.364 242.134,30.200 242.400 M73.400 299.200 C 72.520 299.358,133.360 299.502,208.600 299.520 C 283.840 299.539,346.120 299.405,347.000 299.223 C 348.952 298.819,75.655 298.796,73.400 299.200 M67.057 299.907 C 66.953 300.076,67.572 300.148,68.434 300.065 C 69.295 299.983,70.000 299.845,70.000 299.758 C 70.000 299.460,67.247 299.600,67.057 299.907 " stroke="none" fill="#afe19d" fill-rule="evenodd"></path><path id="path7" d="M222.800 12.017 C 305.712 12.171,342.285 12.368,343.400 12.667 C 350.524 14.581,359.945 21.413,359.993 24.700 C 359.997 24.975,360.180 25.200,360.400 25.200 C 360.620 25.200,360.800 25.560,360.800 26.000 C 360.800 26.440,360.980 26.800,361.200 26.800 C 361.420 26.800,361.600 27.072,361.600 27.405 C 361.600 27.738,361.762 28.323,361.961 28.705 C 363.454 31.578,363.973 40.715,362.853 44.400 C 362.214 46.501,359.941 51.339,359.502 51.533 C 359.336 51.607,359.200 51.833,359.200 52.037 C 359.200 52.470,357.568 54.438,355.655 56.313 C 352.878 59.035,347.928 61.855,344.600 62.613 C 341.301 63.364,307.672 63.585,210.320 63.497 C 151.646 63.444,103.777 63.537,103.944 63.704 C 104.111 63.871,157.967 63.961,223.624 63.904 L 343.000 63.800 345.740 62.872 C 371.291 54.214,369.789 18.629,343.600 12.171 C 341.769 11.720,321.464 11.643,222.600 11.712 L 103.800 11.796 222.800 12.017 M209.931 75.900 C 223.203 75.958,244.803 75.958,257.931 75.900 C 271.059 75.841,260.200 75.794,233.800 75.794 C 207.400 75.794,196.659 75.841,209.931 75.900 M333.072 189.100 C 338.392 189.163,347.212 189.163,352.672 189.100 C 358.133 189.037,353.780 188.985,343.000 188.985 C 332.220 188.985,327.753 189.037,333.072 189.100 M320.657 189.959 C 319.164 190.943,317.997 192.745,318.039 194.000 C 318.067 194.834,318.138 194.768,318.469 193.600 C 318.946 191.916,320.173 190.515,321.800 189.796 C 322.460 189.504,322.730 189.252,322.400 189.235 C 322.070 189.219,321.285 189.545,320.657 189.959 M363.800 189.682 C 368.584 191.354,368.882 197.930,364.269 200.025 C 363.301 200.464,362.920 200.786,363.362 200.791 C 365.392 200.815,368.000 197.558,368.000 195.000 C 368.000 192.421,365.439 189.160,363.469 189.232 C 362.760 189.257,362.822 189.341,363.800 189.682 M318.044 196.000 C 317.969 197.930,320.744 200.833,322.600 200.766 C 323.177 200.745,323.066 200.620,322.200 200.319 C 320.452 199.709,318.913 198.114,318.470 196.452 C 318.158 195.283,318.075 195.195,318.044 196.000 " stroke="none" fill="#e9adbd" fill-rule="evenodd"></path><path id="path8" d="M340.000 12.400 C 340.550 12.576,341.360 12.720,341.800 12.720 C 342.433 12.720,342.392 12.654,341.600 12.400 C 341.050 12.224,340.240 12.080,339.800 12.080 C 339.167 12.080,339.208 12.146,340.000 12.400 M363.293 39.600 C 363.293 40.370,363.375 40.685,363.476 40.300 C 363.576 39.915,363.576 39.285,363.476 38.900 C 363.375 38.515,363.293 38.830,363.293 39.600 M159.700 63.500 C 190.005 63.557,239.595 63.557,269.900 63.500 C 300.205 63.443,275.410 63.397,214.800 63.397 C 154.190 63.397,129.395 63.443,159.700 63.500 M186.000 117.600 C 186.000 145.067,186.136 159.200,186.400 159.200 C 186.664 159.200,186.800 145.067,186.800 117.600 C 186.800 90.133,186.664 76.000,186.400 76.000 C 186.136 76.000,186.000 90.133,186.000 117.600 M280.800 117.600 C 280.800 145.067,280.936 159.200,281.200 159.200 C 281.464 159.200,281.600 145.067,281.600 117.600 C 281.600 90.133,281.464 76.000,281.200 76.000 C 280.936 76.000,280.800 90.133,280.800 117.600 M322.538 189.506 C 322.284 189.668,331.502 189.800,343.023 189.800 C 354.544 189.800,363.662 189.678,363.285 189.528 C 362.353 189.158,323.118 189.137,322.538 189.506 M319.916 191.104 C 319.352 191.707,318.782 192.650,318.649 193.200 C 318.469 193.947,318.556 193.879,318.993 192.931 C 319.314 192.232,319.977 191.382,320.465 191.040 C 320.952 190.698,321.259 190.326,321.147 190.213 C 321.034 190.101,320.480 190.501,319.916 191.104 M365.297 190.902 C 365.901 191.396,366.653 192.520,366.969 193.400 C 367.285 194.280,367.556 194.787,367.572 194.526 C 367.656 193.113,365.630 189.997,364.630 190.002 C 364.394 190.003,364.694 190.408,365.297 190.902 M367.232 195.540 C 367.152 196.895,365.780 198.896,364.446 199.601 C 363.651 200.021,363.180 200.372,363.400 200.381 C 365.034 200.447,368.013 196.832,367.453 195.463 C 367.329 195.160,367.252 195.187,367.232 195.540 M318.645 196.800 C 318.949 198.085,320.715 199.851,322.000 200.155 L 323.000 200.392 321.958 199.896 C 320.400 199.154,319.605 198.390,318.976 197.027 C 318.524 196.050,318.456 196.004,318.645 196.800 M333.128 200.700 C 338.698 200.763,347.698 200.762,353.128 200.700 C 358.558 200.637,354.000 200.585,343.000 200.586 C 332.000 200.586,327.558 200.637,333.128 200.700 M99.300 287.500 C 135.325 287.556,194.275 287.556,230.300 287.500 C 266.325 287.444,236.850 287.398,164.800 287.398 C 92.750 287.398,63.275 287.444,99.300 287.500 " stroke="none" fill="#f9e9cd" fill-rule="evenodd"></path></g></svg>